<?xml version="1.0" standalone="no"?>
<!DOCTYPE svg PUBLIC "-//W3C//DTD SVG 20010904//EN"
 "http://www.w3.org/TR/2001/REC-SVG-20010904/DTD/svg10.dtd">
<svg version="1.0" xmlns="http://www.w3.org/2000/svg"
 width="5000.000000pt" height="5000.000000pt" viewBox="0 0 5000.000000 5000.000000"
 preserveAspectRatio="xMidYMid meet">
<metadata>
Created by potrace 1.16, written by Peter Selinger 2001-2019
</metadata>
<g transform="translate(0.000000,5000.000000) scale(0.100000,-0.100000)"
fill="#000000" stroke="none">
<path d="M24800 49994 c-25 -2 -108 -11 -186 -19 -1062 -111 -2044 -710 -2641
-1610 -146 -220 -293 -508 -382 -745 -376 -1012 -286 -2153 244 -3085 337
-594 823 -1074 1425 -1408 420 -234 937 -392 1420 -436 147 -14 542 -14 685
-1 447 42 897 170 1295 369 570 286 1039 696 1394 1218 346 510 546 1057 617
1693 19 165 16 600 -5 775 -129 1091 -708 2040 -1611 2641 -487 325 -1024 521
-1608 589 -126 15 -553 27 -647 19z"/>
<path d="M24770 40724 c-19 -2 -99 -11 -177 -19 -615 -64 -1238 -312 -1753
-696 -872 -650 -1400 -1622 -1470 -2709 -8 -116 -10 -2120 -8 -6685 4 -6093 5
-6528 21 -6645 38 -276 84 -488 154 -705 384 -1193 1371 -2120 2579 -2423 320
-81 575 -112 909 -112 615 0 1171 137 1715 422 328 172 593 369 876 652 245
246 423 477 584 757 287 502 442 1017 480 1600 16 248 8 13160 -8 13289 -61
480 -174 866 -366 1250 -552 1105 -1619 1859 -2838 2006 -126 15 -616 28 -698
18z"/>
<path d="M11954 32829 c-254 -233 -778 -758 -1005 -1004 -673 -731 -1240
-1452 -1786 -2270 -619 -929 -1154 -1923 -1654 -3076 -765 -1767 -1248 -3678
-1424 -5634 -86 -967 -104 -2032 -50 -2980 187 -3241 1091 -6119 2753 -8760
885 -1405 2010 -2760 3307 -3984 1665 -1570 3459 -2769 5415 -3618 1671 -726
3464 -1191 5345 -1388 1568 -164 3285 -144 4820 54 3104 402 5912 1520 8445
3365 1556 1133 2937 2480 4116 4016 1550 2018 2642 4251 3242 6635 395 1564
582 3124 582 4845 0 2986 -611 5659 -1903 8325 -910 1878 -2078 3525 -3534
4981 -237 237 -699 674 -713 674 -9 0 -4985 -4979 -4980 -4983 3 -2 73 -55
155 -117 1027 -780 1861 -1658 2511 -2645 964 -1465 1520 -3148 1678 -5080 36
-438 41 -570 41 -1150 -1 -578 -6 -724 -41 -1155 -161 -1979 -759 -3735 -1792
-5260 -678 -1001 -1578 -1932 -2627 -2714 -1912 -1428 -4146 -2220 -6755
-2396 -631 -42 -1478 -42 -2130 0 -2881 188 -5359 1160 -7390 2899 -1015 870
-1797 1804 -2423 2896 -144 252 -390 747 -506 1020 -530 1241 -818 2551 -891
4050 -22 442 -12 1205 20 1665 162 2273 872 4217 2134 5845 269 348 510 620
861 971 422 422 783 737 1238 1078 64 49 117 91 117 95 0 3 -1120 1126 -2489
2495 l-2489 2489 -198 -184z"/>
</g>
</svg>
