<?xml version="1.0" standalone="no"?>
<!DOCTYPE svg PUBLIC "-//W3C//DTD SVG 20010904//EN"
 "http://www.w3.org/TR/2001/REC-SVG-20010904/DTD/svg10.dtd">
<svg version="1.0" xmlns="http://www.w3.org/2000/svg"
 width="5000.000000pt" height="2103.000000pt" viewBox="0 0 5000.000000 2103.000000"
 preserveAspectRatio="xMidYMid meet">
<metadata>
Created by potrace 1.16, written by Peter Selinger 2001-2019
</metadata>
<g transform="translate(0.000000,2103.000000) scale(0.100000,-0.100000)"
fill="#000000" stroke="none">
<path d="M30490 10655 l0 -10375 1390 0 1390 0 0 10375 0 10375 -1390 0 -1390
0 0 -10375z"/>
<path d="M0 9965 l0 -9685 1385 0 1385 0 0 3805 0 3805 1739 0 1738 0 2283
-3805 2283 -3805 1568 0 c863 0 1569 2 1569 4 0 3 -1067 1778 -2370 3946
-1304 2168 -2371 3946 -2373 3952 -1 6 9 14 23 18 14 5 93 29 175 55 735 230
1398 589 1930 1046 409 352 823 836 1108 1296 120 195 285 519 365 718 390
972 544 2317 396 3455 -37 281 -140 760 -225 1041 -259 857 -782 1698 -1411
2266 -586 530 -1173 867 -2003 1150 -604 205 -1194 323 -1975 395 -235 22
-237 22 -3912 25 l-3678 3 0 -9685z m7125 7177 c627 -60 1065 -176 1507 -398
337 -169 568 -335 852 -613 497 -488 798 -1026 915 -1641 90 -470 67 -1095
-59 -1623 -197 -825 -675 -1507 -1365 -1951 -125 -80 -413 -222 -576 -284
-327 -123 -686 -204 -1129 -253 -76 -9 -715 -13 -2302 -16 l-2198 -4 0 3401 0
3401 2118 -4 c1481 -3 2153 -7 2237 -15z"/>
<path d="M42640 18904 c-610 -75 -1101 -542 -1205 -1148 -20 -116 -20 -347 0
-462 103 -594 563 -1046 1160 -1141 122 -19 381 -13 495 12 267 58 503 187
695 380 191 191 318 421 377 685 31 139 33 437 5 568 -60 278 -187 514 -382
708 -192 191 -434 323 -695 379 -73 16 -374 28 -450 19z"/>
<path d="M42660 15400 c-623 -65 -1125 -540 -1226 -1159 -12 -72 -14 -506 -14
-2622 0 -2743 -3 -2600 51 -2784 127 -432 459 -779 884 -923 163 -55 240 -67
450 -67 210 0 287 12 450 67 199 68 377 179 530 333 191 191 318 421 377 685
l23 105 0 2585 c0 2460 -1 2589 -18 2670 -59 275 -178 500 -371 699 -156 159
-335 273 -546 344 -177 60 -404 86 -590 67z"/>
<path d="M21050 14394 c-1835 -53 -3382 -698 -4690 -1958 -1481 -1426 -2220
-3171 -2220 -5241 0 -1684 491 -3151 1478 -4415 428 -547 993 -1094 1542
-1491 750 -543 1582 -919 2466 -1114 824 -182 1740 -223 2589 -115 1137 145
2297 604 3235 1281 318 230 555 433 858 736 127 128 232 238 232 245 0 13
-1869 1888 -1882 1888 -3 0 -47 -52 -98 -116 -323 -408 -672 -721 -1080 -966
-540 -325 -1127 -503 -1844 -558 -176 -14 -590 -14 -766 0 -1197 91 -2200 625
-2963 1578 -450 562 -761 1220 -921 1949 -39 179 -70 362 -63 369 23 24 9094
38 10602 17 402 -6 731 -10 733 -8 11 10 25 398 25 710 0 501 -25 844 -94
1275 -247 1549 -959 2884 -2155 4040 -1179 1139 -2599 1769 -4239 1879 -167
11 -583 20 -745 15z m635 -2709 c727 -58 1348 -254 1895 -597 356 -224 736
-552 976 -841 315 -382 555 -816 728 -1315 31 -90 56 -168 56 -173 0 -5 -1589
-9 -4129 -9 l-4130 0 43 128 c211 626 522 1144 946 1572 388 393 891 725 1410
932 386 155 851 263 1280 298 69 6 143 12 165 13 119 10 601 5 760 -8z"/>
<path d="M37736 12299 c-391 -383 -649 -693 -941 -1134 -573 -862 -962 -1873
-1109 -2880 -127 -871 -95 -1839 90 -2680 299 -1365 968 -2530 2074 -3610 868
-848 1916 -1452 3045 -1754 1105 -296 2393 -322 3531 -72 1475 325 2805 1131
3847 2334 1043 1205 1615 2599 1718 4187 16 248 7 1006 -15 1215 -97 933 -320
1703 -737 2535 -369 735 -861 1400 -1433 1933 l-128 120 -944 -944 c-519 -519
-944 -946 -944 -949 1 -3 42 -36 92 -75 122 -93 220 -177 353 -304 833 -792
1239 -1841 1212 -3130 -15 -702 -142 -1266 -412 -1828 -215 -447 -499 -828
-883 -1186 -705 -657 -1550 -1054 -2537 -1191 -306 -43 -416 -50 -805 -50
-391 0 -494 6 -815 50 -1223 168 -2286 775 -3016 1724 -338 438 -590 993 -713
1570 -110 520 -131 1157 -56 1715 145 1070 663 1968 1508 2619 56 44 102 82
102 85 0 3 -425 431 -944 950 l-943 943 -197 -193z"/>
</g>
</svg>
